# xmcd
#
# Track frame offsets:
#	150
#	15887
#	32041
#	44621
#	57541
#	76045
#	93822
#	105226
#	122136
#	141360
#	156670
#	173782
#	194074
#	207916
#	218658
#	237625
#	246188
#	262101
#	271971
#	284387
#	300798
#	313516
#
# Disc length: 4376 seconds
#
# Revision: 0
# Processed by: cddbd v1.5.2PL0 Copyright (c) Steve Scherf et al.
# Submitted via: EasyCDDAExtractor 4.6.0.1
#
DISCID=39111616
DTITLE=Various Artist - Linedance
DYEAR=2006
DGENRE=Country
TTITLE0=Freeze
TTITLE1=Caliente
TTITLE2=Straight Cat Strut
TTITLE3=Barndance
TTITLE4=Canadian Stomp
TTITLE5=Chattahoochee
TTITLE6=Picnic Polka
TTITLE7=God Bless Texas
TTITLE8=Neon Moon
TTITLE9=Hooked on Country
TTITLE10=Coutry Connection Stroll
TTITLE11=Copperhead Road
TTITLE12=Sway
TTITLE13=Strardust
TTITLE14=Red Hot Salsa
TTITLE15=Country Line
TTITLE16=Country Walking
TTITLE17=The Jump
TTITLE18=Ten Step
TTITLE19=El Paso Swing
TTITLE20=Snap Jack
TTITLE21=Kelly's Kannibals
EXTD=
EXTT0=
EXTT1=
EXTT2=
EXTT3=
EXTT4=
EXTT5=
EXTT6=
EXTT7=
EXTT8=
EXTT9=
EXTT10=
EXTT11=
EXTT12=
EXTT13=
EXTT14=
EXTT15=
EXTT16=
EXTT17=
EXTT18=
EXTT19=
EXTT20=
EXTT21=
PLAYORDER=
